<mxfile host="Electron" modified="2023-11-20T11:03:53.235Z" agent="Mozilla/5.0 (Windows NT 10.0; Win64; x64) AppleWebKit/537.36 (KHTML, like Gecko) draw.io/22.1.2 Chrome/114.0.5735.289 Electron/25.9.4 Safari/537.36" etag="JXZw_AB7JnTC_LiR6HJF" version="22.1.2" type="device">
  <diagram name="Page-1" id="Vb5jXJoNymonM7LCBHy4">
    <mxGraphModel dx="1219" dy="713" grid="1" gridSize="10" guides="1" tooltips="1" connect="1" arrows="1" fold="1" page="1" pageScale="1" pageWidth="850" pageHeight="1100" math="0" shadow="0">
      <root>
        <mxCell id="0" />
        <mxCell id="1" parent="0" />
        <mxCell id="UyCXfvhDnYrX9cPMyu-F-1" value="" style="rounded=0;html=1;jettySize=auto;orthogonalLoop=1;fontSize=11;endArrow=block;endFill=0;endSize=8;strokeWidth=1;shadow=0;labelBackgroundColor=none;edgeStyle=orthogonalEdgeStyle;entryX=0.5;entryY=0;entryDx=0;entryDy=0;" edge="1" parent="1" source="UyCXfvhDnYrX9cPMyu-F-2" target="UyCXfvhDnYrX9cPMyu-F-5">
          <mxGeometry relative="1" as="geometry">
            <mxPoint x="407" y="270" as="targetPoint" />
          </mxGeometry>
        </mxCell>
        <mxCell id="UyCXfvhDnYrX9cPMyu-F-2" value="Start" style="rounded=1;whiteSpace=wrap;html=1;fontSize=12;glass=0;strokeWidth=1;shadow=0;" vertex="1" parent="1">
          <mxGeometry x="109.5" y="180" width="120" height="40" as="geometry" />
        </mxCell>
        <mxCell id="UyCXfvhDnYrX9cPMyu-F-3" value="&lt;font style=&quot;font-size: 28px;&quot;&gt;&lt;b&gt;Prediction System&lt;/b&gt;&lt;/font&gt;" style="text;strokeColor=none;align=center;fillColor=none;html=1;verticalAlign=middle;whiteSpace=wrap;rounded=0;" vertex="1" parent="1">
          <mxGeometry x="228.75" y="50" width="369" height="80" as="geometry" />
        </mxCell>
        <mxCell id="UyCXfvhDnYrX9cPMyu-F-4" value="&lt;font style=&quot;font-size: 20px;&quot;&gt;&lt;b style=&quot;font-size: 20px;&quot;&gt;Basic Logic&lt;/b&gt;&lt;/font&gt;" style="text;strokeColor=none;align=center;fillColor=none;html=1;verticalAlign=middle;whiteSpace=wrap;rounded=0;fontSize=20;" vertex="1" parent="1">
          <mxGeometry x="289" y="120" width="250" height="30" as="geometry" />
        </mxCell>
        <mxCell id="UyCXfvhDnYrX9cPMyu-F-5" value="Gets data from the queue item and decodes it into parts" style="rounded=0;whiteSpace=wrap;html=1;" vertex="1" parent="1">
          <mxGeometry x="82" y="280" width="175" height="40" as="geometry" />
        </mxCell>
        <mxCell id="UyCXfvhDnYrX9cPMyu-F-6" value="" style="rounded=0;html=1;jettySize=auto;orthogonalLoop=1;fontSize=11;endArrow=block;endFill=0;endSize=8;strokeWidth=1;shadow=0;labelBackgroundColor=none;edgeStyle=orthogonalEdgeStyle;exitX=1;exitY=0.5;exitDx=0;exitDy=0;entryX=0;entryY=0.5;entryDx=0;entryDy=0;" edge="1" parent="1" source="UyCXfvhDnYrX9cPMyu-F-5" target="UyCXfvhDnYrX9cPMyu-F-11">
          <mxGeometry relative="1" as="geometry">
            <mxPoint x="406.82" y="310" as="sourcePoint" />
            <mxPoint x="352" y="300" as="targetPoint" />
          </mxGeometry>
        </mxCell>
        <mxCell id="UyCXfvhDnYrX9cPMyu-F-11" value="Get prediction data from DB where MatchID is the same&amp;nbsp; &lt;br&gt;and IsChecked = 0" style="rounded=0;whiteSpace=wrap;html=1;" vertex="1" parent="1">
          <mxGeometry x="338" y="270" width="175" height="60" as="geometry" />
        </mxCell>
        <mxCell id="UyCXfvhDnYrX9cPMyu-F-27" value="" style="rounded=0;html=1;jettySize=auto;orthogonalLoop=1;fontSize=11;endArrow=block;endFill=0;endSize=8;strokeWidth=1;shadow=0;labelBackgroundColor=none;edgeStyle=orthogonalEdgeStyle;exitX=1;exitY=0.5;exitDx=0;exitDy=0;" edge="1" parent="1" source="UyCXfvhDnYrX9cPMyu-F-11">
          <mxGeometry relative="1" as="geometry">
            <mxPoint x="530" y="299.76" as="sourcePoint" />
            <mxPoint x="600" y="300" as="targetPoint" />
          </mxGeometry>
        </mxCell>
        <mxCell id="UyCXfvhDnYrX9cPMyu-F-31" style="edgeStyle=orthogonalEdgeStyle;rounded=0;orthogonalLoop=1;jettySize=auto;html=1;exitX=0.5;exitY=1;exitDx=0;exitDy=0;endArrow=block;endFill=0;endSize=8;" edge="1" parent="1" source="UyCXfvhDnYrX9cPMyu-F-28" target="UyCXfvhDnYrX9cPMyu-F-30">
          <mxGeometry relative="1" as="geometry" />
        </mxCell>
        <mxCell id="UyCXfvhDnYrX9cPMyu-F-28" value="Calculate points and update Score on Users table" style="rounded=0;whiteSpace=wrap;html=1;" vertex="1" parent="1">
          <mxGeometry x="600" y="280" width="175" height="40" as="geometry" />
        </mxCell>
        <mxCell id="UyCXfvhDnYrX9cPMyu-F-33" style="edgeStyle=orthogonalEdgeStyle;rounded=0;orthogonalLoop=1;jettySize=auto;html=1;exitX=0.5;exitY=1;exitDx=0;exitDy=0;endArrow=block;endFill=0;endSize=8;" edge="1" parent="1" source="UyCXfvhDnYrX9cPMyu-F-30" target="UyCXfvhDnYrX9cPMyu-F-32">
          <mxGeometry relative="1" as="geometry" />
        </mxCell>
        <mxCell id="UyCXfvhDnYrX9cPMyu-F-30" value="Set current prediction IsChecked = 1" style="rounded=0;whiteSpace=wrap;html=1;" vertex="1" parent="1">
          <mxGeometry x="600" y="390" width="175" height="40" as="geometry" />
        </mxCell>
        <mxCell id="UyCXfvhDnYrX9cPMyu-F-32" value="Stop" style="rounded=1;whiteSpace=wrap;html=1;fontSize=12;glass=0;strokeWidth=1;shadow=0;" vertex="1" parent="1">
          <mxGeometry x="627.5" y="500" width="120" height="40" as="geometry" />
        </mxCell>
      </root>
    </mxGraphModel>
  </diagram>
</mxfile>
